<svg width="201" height="201" viewBox="0 0 201 201" fill="none" xmlns="http://www.w3.org/2000/svg">
<g filter="url(#filter0_i)">
<path d="M46.7929 64.3802C46.2744 65.1981 45.276 65.7844 43.798 66.1393L42.4367 66.4661V58.3061L43.6425 58.0166C44.939 57.7054 45.9243 57.8021 46.5984 58.3069C47.2726 58.7851 47.6097 59.6642 47.6097 60.9442C47.6097 62.4108 47.3375 63.5562 46.7929 64.3802Z" fill="url(#paint0_linear)"/>
<path d="M47.0263 78.6843C46.4299 79.5741 45.3927 80.1964 43.9147 80.5513L42.4367 80.9061V71.1861L43.8758 70.8406C45.3798 70.4796 46.4299 70.6008 47.0263 71.2042C47.6486 71.8015 47.9598 73.0201 47.9598 74.8601C47.9598 76.4868 47.6486 77.7615 47.0263 78.6843Z" fill="url(#paint1_linear)"/>
<path d="M46.754 137.91C45.9502 139.009 44.5759 139.793 42.6312 140.259L38.8584 141.165V128.645L42.6701 127.73C44.0962 127.388 45.1853 127.313 45.9373 127.506C46.6892 127.698 47.2208 128.211 47.5319 129.043C47.8431 129.848 47.9987 131.091 47.9987 132.771C47.9987 135.064 47.5838 136.777 46.754 137.91Z" fill="url(#paint2_linear)"/>
<path d="M62.1719 151.128C64.0907 150.667 65.4131 149.777 66.1392 148.456C66.8652 147.108 67.2282 145.314 67.2282 143.074V128.394C67.2282 126.154 66.8652 124.561 66.1392 123.616C65.439 122.664 64.1166 122.421 62.1719 122.888C60.2012 123.361 58.8528 124.245 58.1268 125.539C57.4008 126.807 57.0378 128.574 57.0378 130.841V145.521C57.0378 147.787 57.4008 149.407 58.1268 150.379C58.8528 151.352 60.2012 151.601 62.1719 151.128Z" fill="url(#paint3_linear)"/>
<path d="M85.6017 144.263C84.8239 145.117 83.644 145.733 82.0623 146.113L78.095 147.065V119.305L81.9456 118.381C83.4755 118.014 84.6423 118.013 85.4462 118.38C86.25 118.747 86.7945 119.43 87.0797 120.428C87.3649 121.4 87.5076 122.766 87.5076 124.526V136.606C87.5076 138.446 87.3909 139.967 87.1575 141.17C86.9241 142.346 86.4056 143.377 85.6017 144.263Z" fill="url(#paint4_linear)"/>
<path d="M121.366 110.597L124.711 127.274L118.021 128.88L121.366 110.597Z" fill="url(#paint5_linear)"/>
<path fill-rule="evenodd" clip-rule="evenodd" d="M200.352 0.538574H0.352051V200.539H200.352V0.538574ZM72.4981 46.289L58.3404 49.6879V82.088L72.5759 78.6703V73.8303L65.3026 75.5765V65.8965L70.7867 64.5798V59.6199L65.3026 60.9365V52.8965L72.4981 51.169V46.289ZM43.6813 53.2073L35.4745 55.1776V87.5776L45.1594 85.2524C51.5121 83.7273 54.6885 79.7647 54.6885 73.3647C54.6885 71.0714 54.2089 69.3732 53.2495 68.2702C52.29 67.1672 50.9028 66.7136 49.0877 66.9094C50.5657 66.2612 51.7066 65.3073 52.5104 64.0476C53.3143 62.788 53.7162 61.1981 53.7162 59.2781C53.7162 57.0115 53.2754 55.3573 52.3938 54.3156C51.5121 53.2739 50.3453 52.7141 48.8932 52.636C47.4671 52.5251 45.7298 52.7155 43.6813 53.2073ZM34.2688 119.547L41.97 94.4581L34.6188 96.223V91.383L48.8154 87.9747V92.0147L40.9976 117.412L48.8932 115.516V120.356L34.2688 123.867V119.547ZM55.8016 118.017C57.1759 118.461 59.0428 118.399 61.4025 117.833C63.7621 117.266 65.6161 116.435 66.9644 115.338C68.3387 114.208 69.3111 112.814 69.8815 111.157C70.452 109.474 70.7372 107.445 70.7372 105.072V82.7117L63.814 84.3739V107.814C63.814 109.121 63.6584 110.198 63.3472 111.046C63.0361 111.894 62.3878 112.436 61.4025 112.673C60.4171 112.909 59.7559 112.681 59.4188 111.989C59.1077 111.29 58.9521 110.288 58.9521 108.981V85.5411L52.0677 87.1939V109.554C52.0677 111.927 52.34 113.822 52.8845 115.238C53.455 116.621 54.4274 117.547 55.8016 118.017ZM75.167 81.6483L82.1292 79.9768V107.537L89.3636 105.8V110.64L75.167 114.048V81.6483ZM95.3041 108.534C96.6785 108.977 98.5454 108.916 100.905 108.349C103.265 107.783 105.119 106.951 106.467 105.854C107.841 104.724 108.814 103.33 109.384 101.673C109.955 99.9898 110.24 97.9614 110.24 95.588V73.228L103.316 74.8901V98.3301C103.316 99.6368 103.161 100.714 102.85 101.562C102.539 102.41 101.89 102.953 100.905 103.189C99.9197 103.426 99.2585 103.198 98.9214 102.505C98.6102 101.807 98.4547 100.804 98.4547 99.4974V76.0574L91.5703 77.7102V100.07C91.5703 102.444 91.8425 104.338 92.387 105.754C92.9575 107.137 93.9299 108.064 95.3041 108.534ZM114.242 72.3472L120.543 70.8345L118.248 95.4655L116.07 95.9884L114.242 72.3472ZM114.125 98.6153L120.115 97.1772V103.257L114.125 104.695V98.6153ZM43.448 125.263L35.9024 127.075V159.475L38.8584 158.765V143.445L43.4869 142.334C46.028 141.724 47.895 140.489 49.0877 138.629C50.3064 136.763 50.9158 134.577 50.9158 132.07C50.9158 129.324 50.3323 127.344 49.1655 126.131C48.0246 124.911 46.1188 124.622 43.448 125.263ZM62.1719 153.568C59.2159 154.278 57.1155 153.915 55.8709 152.481C54.6522 151.04 54.0428 148.733 54.0428 145.56V132.12C54.0428 128.973 54.6652 126.424 55.9098 124.471C57.1544 122.493 59.2418 121.152 62.1719 120.448C65.0501 119.757 67.1115 120.102 68.3561 121.483C69.6008 122.865 70.2231 125.115 70.2231 128.235V141.715C70.2231 144.888 69.6137 147.488 68.395 149.514C67.1763 151.513 65.1019 152.865 62.1719 153.568ZM81.9845 116.012L75.139 117.655V150.055L82.2568 148.346C85.2646 147.624 87.3909 146.26 88.6355 144.255C89.9061 142.216 90.5414 139.584 90.5414 136.357V123.477C90.5414 120.411 89.8931 118.219 88.5966 116.904C87.3001 115.562 85.0961 115.264 81.9845 116.012ZM102.734 143.83C99.7783 144.54 97.7039 144.144 96.5111 142.644C95.3442 141.137 94.7609 138.798 94.7609 135.624V122.744C94.7609 119.491 95.3442 116.857 96.5111 114.844C97.7039 112.798 99.7783 111.42 102.734 110.71C105.431 110.062 107.35 110.388 108.491 111.688C109.632 112.987 110.202 115.13 110.202 118.117V120.077L107.402 120.749V118.869C107.402 117.323 107.285 116.097 107.052 115.193C106.818 114.263 106.364 113.612 105.69 113.24C105.016 112.869 104.044 112.836 102.773 113.141C101.399 113.471 100.349 114.016 99.6227 114.777C98.8967 115.538 98.404 116.47 98.1447 117.572C97.8854 118.647 97.7557 119.985 97.7557 121.585V135.385C97.7557 137.892 98.1188 139.631 98.8448 140.604C99.5967 141.57 100.906 141.829 102.773 141.381C104.614 140.939 105.846 140.07 106.468 138.773C107.091 137.451 107.402 135.603 107.402 133.229V131.109L110.202 130.437V132.357C110.202 135.45 109.645 137.971 108.53 139.919C107.415 141.866 105.483 143.17 102.734 143.83ZM122.883 106.193L119.771 106.94L113.12 140.937L115.998 140.246L117.593 131.183L125.1 129.38L126.655 137.687L129.573 136.987L122.883 106.193ZM140.057 134.87C137.594 135.461 135.714 135.139 134.417 133.904C133.121 132.641 132.382 130.659 132.2 127.956L134.806 126.53C135.04 128.767 135.532 130.409 136.284 131.455C137.062 132.495 138.333 132.803 140.096 132.38C143.052 131.67 144.53 129.756 144.53 126.636C144.53 125.302 144.219 124.204 143.597 123.34C143 122.47 142.028 121.543 140.68 120.56L135.118 116.415C134.106 115.698 133.367 114.876 132.901 113.948C132.46 112.987 132.239 111.866 132.239 110.586C132.239 108.373 132.875 106.514 134.145 105.009C135.442 103.471 137.179 102.44 139.357 101.918C141.691 101.357 143.48 101.568 144.725 102.549C145.969 103.53 146.695 105.449 146.903 108.306L144.375 109.593C144.219 107.444 143.765 105.926 143.013 105.04C142.287 104.147 141.068 103.907 139.357 104.318C138.009 104.641 136.933 105.26 136.129 106.173C135.325 107.086 134.923 108.249 134.923 109.662C134.923 110.569 135.092 111.342 135.429 111.981C135.766 112.62 136.336 113.243 137.14 113.85L142.702 117.915C144.128 118.959 145.243 120.118 146.047 121.391C146.877 122.632 147.292 124.093 147.292 125.773C147.292 128.119 146.63 130.091 145.308 131.689C143.986 133.286 142.235 134.347 140.057 134.87ZM149.196 102.235L155.147 100.807V130.847L158.103 130.137V100.097L163.898 98.7058V96.3458L149.196 99.8755V102.235Z" fill="url(#paint6_linear)"/>
</g>
<defs>
<filter id="filter0_i" x="0.352051" y="0.538574" width="204" height="204" filterUnits="userSpaceOnUse" color-interpolation-filters="sRGB">
<feFlood flood-opacity="0" result="BackgroundImageFix"/>
<feBlend mode="normal" in="SourceGraphic" in2="BackgroundImageFix" result="shape"/>
<feColorMatrix in="SourceAlpha" type="matrix" values="0 0 0 0 0 0 0 0 0 0 0 0 0 0 0 0 0 0 127 0" result="hardAlpha"/>
<feOffset dx="6" dy="6"/>
<feGaussianBlur stdDeviation="2"/>
<feComposite in2="hardAlpha" operator="arithmetic" k2="-1" k3="1"/>
<feColorMatrix type="matrix" values="0 0 0 0 0 0 0 0 0 0 0 0 0 0 0 0 0 0 0.3 0"/>
<feBlend mode="normal" in2="shape" result="effect1_innerShadow"/>
</filter>
<linearGradient id="paint0_linear" x1="128.709" y1="-56.5803" x2="-8.92651" y2="194.151" gradientUnits="userSpaceOnUse">
<stop stop-color="#7203A6"/>
<stop offset="1" stop-color="#03418A"/>
</linearGradient>
<linearGradient id="paint1_linear" x1="128.709" y1="-56.5803" x2="-8.92651" y2="194.151" gradientUnits="userSpaceOnUse">
<stop stop-color="#7203A6"/>
<stop offset="1" stop-color="#03418A"/>
</linearGradient>
<linearGradient id="paint2_linear" x1="128.709" y1="-56.5803" x2="-8.92651" y2="194.151" gradientUnits="userSpaceOnUse">
<stop stop-color="#7203A6"/>
<stop offset="1" stop-color="#03418A"/>
</linearGradient>
<linearGradient id="paint3_linear" x1="128.709" y1="-56.5803" x2="-8.92651" y2="194.151" gradientUnits="userSpaceOnUse">
<stop stop-color="#7203A6"/>
<stop offset="1" stop-color="#03418A"/>
</linearGradient>
<linearGradient id="paint4_linear" x1="128.709" y1="-56.5803" x2="-8.92651" y2="194.151" gradientUnits="userSpaceOnUse">
<stop stop-color="#7203A6"/>
<stop offset="1" stop-color="#03418A"/>
</linearGradient>
<linearGradient id="paint5_linear" x1="128.709" y1="-56.5803" x2="-8.92651" y2="194.151" gradientUnits="userSpaceOnUse">
<stop stop-color="#7203A6"/>
<stop offset="1" stop-color="#03418A"/>
</linearGradient>
<linearGradient id="paint6_linear" x1="128.709" y1="-56.5803" x2="-8.92651" y2="194.151" gradientUnits="userSpaceOnUse">
<stop stop-color="#7203A6"/>
<stop offset="1" stop-color="#03418A"/>
</linearGradient>
</defs>
</svg>
