<svg width="201" height="201" viewBox="0 0 201 201" fill="none" xmlns="http://www.w3.org/2000/svg">
<g filter="url(#filter0_i)">
<path d="M151.943 99.6647C154.475 97.3693 154.868 96.2867 152.991 96.7197C151.331 97.1094 148.929 99.4482 148.929 100.661C148.929 102.09 149.453 101.917 151.943 99.6647Z" fill="url(#paint0_linear)"/>
<path d="M133.385 98.2789C133.472 98.1057 133.428 97.6725 133.209 97.326C132.904 96.8496 132.729 96.8496 132.161 97.2827C131.768 97.5858 131.594 98.0189 131.725 98.2355C132.031 98.712 133.079 98.7552 133.385 98.2789Z" fill="url(#paint1_linear)"/>
<path d="M74.174 105.771C74.4795 104.689 74.6979 103.389 74.6979 102.826C74.6979 101.874 74.6542 101.874 73.8246 102.956C72.5145 104.645 72.209 107.72 73.3442 107.72C73.5189 107.72 73.8683 106.854 74.174 105.771Z" fill="url(#paint2_linear)"/>
<path d="M87.099 101.44C87.2299 101.094 87.1863 100.791 86.9679 100.791C86.7496 100.791 86.3566 101.094 86.0509 101.44C85.6143 101.96 85.6143 102.09 86.1819 102.09C86.5312 102.09 86.9243 101.787 87.099 101.44Z" fill="url(#paint3_linear)"/>
<path fill-rule="evenodd" clip-rule="evenodd" d="M0.647949 0.538574H200.648V200.539H0.647949V0.538574ZM116.442 112.225C116.311 111.878 116.399 111.142 116.661 110.665C117.184 109.713 116.879 105.945 116.137 104.645C115.787 103.996 115.263 103.909 112.6 104.082C109.237 104.299 108.015 103.909 108.451 102.783C108.67 102.22 109.412 102.09 112.032 102.09H115.307L115.045 97.456C114.827 93.2983 114.87 92.5187 115.7 90.3099C116.704 87.668 118.669 85.6325 120.197 85.6325C121.594 85.6325 124.476 87.4082 124.476 88.3177C124.476 89.3138 124.083 89.2704 122.731 88.2311C120.416 86.4553 118.495 87.7113 117.272 91.8257C116.486 94.5109 116.442 98.8851 117.184 100.358C117.665 101.267 118.014 101.44 119.455 101.311C120.416 101.224 121.813 101.007 122.512 100.791C123.254 100.618 124.564 100.314 125.481 100.141C126.616 99.9679 127.751 99.275 129.105 97.9756C130.197 96.8929 131.551 95.8969 132.161 95.7669C134.345 95.2039 137.227 97.8024 135.568 98.7986C134.258 99.5348 131.768 100.358 130.72 100.358C129.847 100.358 129.717 100.574 129.717 102.003C129.717 104.992 131.375 105.468 134.65 103.389C135.786 102.696 136.834 102.09 136.921 102.09C137.009 102.09 137.969 101.527 139.017 100.791C142.817 98.2789 144.214 99.7081 142.205 104.082C141.593 105.425 141.2 106.681 141.332 106.897C141.419 107.114 142.817 106.464 144.345 105.425L147.183 103.606L146.921 101.614C146.659 99.838 146.79 99.4915 147.969 98.1489C149.366 96.5465 152.598 94.7274 154.038 94.7274C154.519 94.7274 155.261 95.1172 155.698 95.5936C156.396 96.3732 156.396 96.4598 155.523 97.8891C154.999 98.712 153.733 100.055 152.641 100.834C151.593 101.657 150.676 102.653 150.676 103.086C150.676 104.039 150.895 104.039 153.514 102.74C155.435 101.744 157.662 99.3616 157.662 98.2355C157.662 97.6293 159.06 97.2394 159.541 97.7158C159.802 97.9756 159.802 98.582 159.452 99.4049C158.842 100.878 158.973 103.216 159.628 103.086C159.89 103.043 160.195 102.437 160.326 101.744C160.719 99.8813 162.117 97.7591 162.99 97.7591C163.994 97.7591 163.994 98.6253 163.033 100.314C161.898 102.263 162.727 102.48 164.255 100.661C166.09 98.452 169.67 96.4598 171.766 96.4598C173.12 96.4598 173.426 96.5898 173.294 97.1962C173.207 97.7158 172.465 98.1057 171.155 98.4088C168.884 98.8851 165.828 101.137 164.824 103C164.255 104.126 164.255 104.386 164.824 105.512C165.217 106.248 166.09 106.984 166.92 107.244C168.667 107.85 172.727 107.461 175.959 106.378C177.268 105.901 178.709 105.555 179.146 105.555C180.587 105.555 179.757 106.594 177.705 107.331C173.863 108.76 172.509 109.063 169.496 109.106C166.963 109.149 166.221 109.02 164.911 108.153C164.081 107.547 163.12 106.378 162.727 105.468C162.029 103.606 161.418 103.389 160.632 104.689C159.802 105.988 158.58 105.771 158.055 104.256C157.575 102.956 156.266 102.48 155.698 103.389C155.348 103.952 152.03 105.555 151.244 105.555C150.938 105.555 150.283 105.338 149.803 105.035C148.929 104.472 147.533 104.948 145.96 106.464C144.607 107.677 141.506 109.063 140.502 108.933C139.149 108.76 138.974 106.421 140.152 104.429C141.026 102.956 141.332 101.657 140.807 101.657C140.677 101.657 138.886 102.74 136.921 104.039C134.04 105.901 132.86 106.421 131.551 106.421C129.542 106.421 128.144 105.165 127.708 103.043C127.315 101.224 127.097 101.094 124.957 101.874C123.953 102.22 122.162 102.61 120.983 102.783C118.276 103.13 117.796 103.649 118.363 105.598C118.975 107.634 118.887 111.791 118.276 112.398C117.534 113.134 116.748 113.047 116.442 112.225ZM31.6 111.098C31.3817 110.795 30.8575 109.713 30.4209 108.716C29.4603 106.594 29.7223 105.382 31.0322 105.771C31.731 105.988 31.9056 105.858 31.9056 105.165C31.9056 104.299 30.5083 103.173 30.0281 103.649C29.7223 103.952 23.4346 102.696 22.2991 102.09C21.8188 101.83 21.4258 101.354 21.4258 101.007C21.4258 100.055 22.9979 99.838 24.7444 100.574C27.146 101.57 30.7267 101.874 31.3379 101.181C31.731 100.661 31.6437 97.2394 30.9886 91.0462C30.7267 88.7507 33.4775 87.1917 37.8441 87.2349C41.1627 87.2782 45.5729 89.1838 45.7913 90.743C45.9659 91.9123 45.704 91.9557 44.2194 90.873C41.6866 89.0973 37.1455 88.5775 34.3073 89.7902L32.6478 90.4399L32.9536 95.5071C33.1283 98.2789 33.434 100.747 33.6522 100.964C33.8269 101.137 36.4905 100.921 39.6344 100.401C49.6338 98.7986 56.3583 98.7552 56.3583 100.358C56.3583 100.618 55.8344 101.051 55.1794 101.311C54.4807 101.614 53.52 102.22 52.9961 102.696C51.3368 104.082 51.9044 106.421 53.8694 106.421C55.0483 106.421 57.7993 104.342 58.9346 102.61C60.3319 100.488 60.9432 101.007 60.9432 104.386C60.9432 107.72 61.4672 108.587 62.9955 107.764C64.2618 107.071 66.3578 104.342 68.1479 101.007C68.934 99.5782 69.7201 98.2355 69.9384 98.0189C70.1567 97.7591 70.3314 97.2394 70.3314 96.8496C70.3314 95.7236 72.1653 92.562 72.8203 92.562C73.8246 92.562 73.912 93.6881 73.1259 95.2472C72.6892 96.0267 72.0779 97.3693 71.7723 98.1922C71.1609 99.838 71.03 102.956 71.554 102.956C71.7286 102.956 72.5145 101.96 73.3005 100.747C75.1345 97.9324 76.1825 97.9756 76.3572 100.878C76.4445 102.003 76.2699 104.039 76.0515 105.425C75.7894 106.768 75.6586 107.937 75.7458 108.023C75.8333 108.11 77.3177 107.461 79.0645 106.551C81.859 105.122 82.2957 104.689 82.8197 103.216C83.7804 100.358 87.4482 97.5425 88.8893 98.5388C89.5005 98.9718 90.4175 100.661 90.4175 101.354C90.4175 101.657 89.8499 102.48 89.1075 103.173C88.4088 103.866 87.7976 104.689 87.7976 104.992C87.7976 105.988 89.4132 105.598 92.6444 103.779C96.4869 101.614 98.5393 101.224 99.9802 102.393C100.941 103.173 100.985 103.346 100.373 104.169C99.3689 105.641 93.7798 109.496 93.3431 109.063C92.7754 108.5 93.2559 107.937 95.9194 105.945C97.2294 104.992 98.2772 103.952 98.2772 103.606C98.2772 103.259 98.1464 102.956 98.0153 102.956C97.8844 102.956 95.832 103.952 93.5178 105.122C88.8893 107.461 87.2299 107.807 86.4875 106.421C85.8762 105.295 84.8282 105.512 79.6758 108.023C77.4924 109.063 74.9161 110.059 73.9556 110.189C72.3837 110.406 72.1217 110.276 71.3356 109.193C70.8553 108.5 70.2876 106.811 70.1567 105.468C69.8074 102.87 69.1959 101.917 68.7157 103.259C67.7987 105.728 63.4321 110.319 61.9476 110.319C61.1179 110.319 59.4149 108.153 59.4149 107.071C59.4149 105.685 58.7599 105.728 56.402 107.287C55.3541 108.023 54.0878 108.587 53.6511 108.587C52.7778 108.587 50.5509 106.681 50.1578 105.555C49.9395 104.992 49.7212 104.992 48.4985 105.685C46.8392 106.594 45.3109 106.638 44.6123 105.815C43.8263 104.905 44.4813 103.996 46.6646 102.913C47.7998 102.35 48.8042 101.83 48.8915 101.744C49.0226 101.7 48.8915 101.44 48.6295 101.181C48.3239 100.878 46.9703 101.051 44.3066 101.614C42.167 102.09 39.1541 102.61 37.5822 102.783C33.5649 103.173 33.5212 103.259 33.3903 106.724C33.2592 111.098 32.6917 112.528 31.6 111.098Z" fill="url(#paint4_linear)"/>
</g>
<defs>
<filter id="filter0_i" x="0.647949" y="0.538574" width="204" height="204" filterUnits="userSpaceOnUse" color-interpolation-filters="sRGB">
<feFlood flood-opacity="0" result="BackgroundImageFix"/>
<feBlend mode="normal" in="SourceGraphic" in2="BackgroundImageFix" result="shape"/>
<feColorMatrix in="SourceAlpha" type="matrix" values="0 0 0 0 0 0 0 0 0 0 0 0 0 0 0 0 0 0 127 0" result="hardAlpha"/>
<feOffset dx="6" dy="6"/>
<feGaussianBlur stdDeviation="2"/>
<feComposite in2="hardAlpha" operator="arithmetic" k2="-1" k3="1"/>
<feColorMatrix type="matrix" values="0 0 0 0 0 0 0 0 0 0 0 0 0 0 0 0 0 0 0.3 0"/>
<feBlend mode="normal" in2="shape" result="effect1_innerShadow"/>
</filter>
<linearGradient id="paint0_linear" x1="129.005" y1="-56.5803" x2="-8.63061" y2="194.151" gradientUnits="userSpaceOnUse">
<stop stop-color="#7203A6"/>
<stop offset="1" stop-color="#03418A"/>
</linearGradient>
<linearGradient id="paint1_linear" x1="129.005" y1="-56.5803" x2="-8.63061" y2="194.151" gradientUnits="userSpaceOnUse">
<stop stop-color="#7203A6"/>
<stop offset="1" stop-color="#03418A"/>
</linearGradient>
<linearGradient id="paint2_linear" x1="129.005" y1="-56.5803" x2="-8.63061" y2="194.151" gradientUnits="userSpaceOnUse">
<stop stop-color="#7203A6"/>
<stop offset="1" stop-color="#03418A"/>
</linearGradient>
<linearGradient id="paint3_linear" x1="129.005" y1="-56.5803" x2="-8.63061" y2="194.151" gradientUnits="userSpaceOnUse">
<stop stop-color="#7203A6"/>
<stop offset="1" stop-color="#03418A"/>
</linearGradient>
<linearGradient id="paint4_linear" x1="129.005" y1="-56.5803" x2="-8.63061" y2="194.151" gradientUnits="userSpaceOnUse">
<stop stop-color="#7203A6"/>
<stop offset="1" stop-color="#03418A"/>
</linearGradient>
</defs>
</svg>
