<svg width="200" height="201" viewBox="0 0 200 201" fill="none" xmlns="http://www.w3.org/2000/svg">
<path d="M115.457 143.085C114.377 143.614 113.3 144.15 112.24 144.684L112.259 144.555L113.958 132.07L115.457 143.085Z" fill="#8806A5"/>
<path fill-rule="evenodd" clip-rule="evenodd" d="M200 0.538574H0V200.539H200V0.538574ZM109.253 86.5071C109.253 89.6743 106.685 92.2418 103.518 92.2418H96.4828C93.3156 92.2418 90.748 89.6743 90.748 86.5071V51.2733C90.748 48.1061 93.3156 45.5386 96.4828 45.5386H103.518C106.685 45.5386 109.253 48.1061 109.253 51.2733L109.253 86.5071ZM112.705 108.406C120.103 105.986 127.216 100.686 131.224 94.3499V57.2572C131.224 54.09 128.657 51.5225 125.49 51.5225H118.439C115.272 51.5225 112.705 54.09 112.705 57.2572V108.406ZM60.3295 123.536H67.9152L71.4315 142.145L75.2244 123.536H82.5336L83.0867 155.539H78.069L77.4764 134.243L73.7626 155.539H69.298L65.3471 134.085L64.873 155.539H59.7764L60.3295 123.536ZM102.094 123.536H87.7133V155.539H102.174V150.758H94.7853V141.197H100.356V136.298H94.7853V128.356H102.094V123.536ZM117.948 123.536H109.888L103.843 155.539H110.52L111.614 148.859C113.106 148.491 114.637 148.124 116.168 147.773L117.395 155.539H123.914L117.948 123.536ZM123.511 128.791H128.332V155.539H135.443V128.791H140.224V123.536H123.511V128.791ZM87.2836 108.514V57.1395C87.2836 53.9723 84.5181 51.4048 81.3509 51.4048H74.5109C71.3436 51.4048 68.7761 53.9723 68.7761 57.1395V95.0644C72.413 100.945 79.8898 106.219 87.2836 108.514Z" fill="#8806A5"/>
<path opacity="0.35" d="M109.246 102.876C109.246 105.99 106.679 108.514 103.512 108.514H96.4764C93.3092 108.514 90.7417 105.99 90.7417 102.876L90.7417 86.9411C90.7417 89.5018 93.2806 92.2519 96.4764 92.2519C99.6722 92.2519 100.97 92.2519 103.822 92.2519C106.673 92.2519 109.246 89.451 109.246 86.9411C109.246 84.4312 109.246 102.876 109.246 102.876Z" fill="white"/>
</svg>
